<svg xmlns="http://www.w3.org/2000/svg" viewBox="0 0 64 64"><circle cx="32" cy="32" r="31" fill="#11131b"/><g stroke="#3aa6a0" stroke-width="1" stroke-opacity=".7"><line x1="32.0" y1="10.0" x2="46.1" y2="15.1"/><line x1="32.0" y1="10.0" x2="53.7" y2="28.2"/><line x1="32.0" y1="10.0" x2="51.1" y2="43.0"/><line x1="32.0" y1="10.0" x2="39.5" y2="52.7"/><line x1="32.0" y1="10.0" x2="24.5" y2="52.7"/><line x1="32.0" y1="10.0" x2="12.9" y2="43.0"/><line x1="32.0" y1="10.0" x2="10.3" y2="28.2"/><line x1="32.0" y1="10.0" x2="17.9" y2="15.1"/><line x1="46.1" y1="15.1" x2="53.7" y2="28.2"/><line x1="46.1" y1="15.1" x2="51.1" y2="43.0"/><line x1="46.1" y1="15.1" x2="39.5" y2="52.7"/><line x1="46.1" y1="15.1" x2="24.5" y2="52.7"/><line x1="46.1" y1="15.1" x2="12.9" y2="43.0"/><line x1="46.1" y1="15.1" x2="10.3" y2="28.2"/><line x1="46.1" y1="15.1" x2="17.9" y2="15.1"/><line x1="53.7" y1="28.2" x2="51.1" y2="43.0"/><line x1="53.7" y1="28.2" x2="39.5" y2="52.7"/><line x1="53.7" y1="28.2" x2="24.5" y2="52.7"/><line x1="53.7" y1="28.2" x2="12.9" y2="43.0"/><line x1="53.7" y1="28.2" x2="10.3" y2="28.2"/><line x1="53.7" y1="28.2" x2="17.9" y2="15.1"/><line x1="51.1" y1="43.0" x2="39.5" y2="52.7"/><line x1="51.1" y1="43.0" x2="24.5" y2="52.7"/><line x1="51.1" y1="43.0" x2="12.9" y2="43.0"/><line x1="51.1" y1="43.0" x2="10.3" y2="28.2"/><line x1="51.1" y1="43.0" x2="17.9" y2="15.1"/><line x1="39.5" y1="52.7" x2="24.5" y2="52.7"/><line x1="39.5" y1="52.7" x2="12.9" y2="43.0"/><line x1="39.5" y1="52.7" x2="10.3" y2="28.2"/><line x1="39.5" y1="52.7" x2="17.9" y2="15.1"/><line x1="24.5" y1="52.7" x2="12.9" y2="43.0"/><line x1="24.5" y1="52.7" x2="10.3" y2="28.2"/><line x1="24.5" y1="52.7" x2="17.9" y2="15.1"/><line x1="12.9" y1="43.0" x2="10.3" y2="28.2"/><line x1="12.9" y1="43.0" x2="17.9" y2="15.1"/><line x1="10.3" y1="28.2" x2="17.9" y2="15.1"/></g><circle cx="32" cy="32" r="22" fill="none" stroke="#d9a441" stroke-width="2"/><g fill="#d9a441"><circle cx="32.0" cy="10.0" r="4.2"/><circle cx="46.1" cy="15.1" r="4.2"/><circle cx="53.7" cy="28.2" r="4.2"/><circle cx="51.1" cy="43.0" r="4.2"/><circle cx="39.5" cy="52.7" r="4.2"/><circle cx="24.5" cy="52.7" r="4.2"/><circle cx="12.9" cy="43.0" r="4.2"/><circle cx="10.3" cy="28.2" r="4.2"/><circle cx="17.9" cy="15.1" r="4.2"/></g></svg>